<svg xmlns="http://www.w3.org/2000/svg"
	 viewBox="0 0 432.952 432.952">
				<path fill-rule="evenodd" clip-rule="evenodd" d="M191.99,287.599c-11.425,0-21.994-6.793-29.763-19.127c-7.315-11.616-11.345-26.959-11.345-43.203
					c0-16.243,4.029-31.586,11.345-43.201c7.769-12.334,18.339-19.127,29.763-19.127c11.426,0,21.997,6.793,29.766,19.127
					c7.316,11.615,11.346,26.958,11.346,43.201c0,16.244-4.029,31.588-11.346,43.203
					C213.987,280.806,203.416,287.599,191.99,287.599z M191.99,172.941c-16.862,0-31.107,23.963-31.107,52.328
					c0,28.366,14.245,52.33,31.107,52.33c16.864,0,31.111-23.964,31.111-52.33C223.102,196.904,208.855,172.941,191.99,172.941z"/>
				<path fill-rule="evenodd" clip-rule="evenodd" d="M317.412,259.697c-11.425,0-21.996-6.793-29.765-19.126c-7.315-11.616-11.345-26.959-11.345-43.204
					c0-16.243,4.029-31.586,11.346-43.2c7.769-12.334,18.339-19.126,29.764-19.126s21.996,6.792,29.765,19.126
					c7.317,11.615,11.347,26.957,11.347,43.2c0,16.245-4.029,31.588-11.347,43.204C339.408,252.905,328.838,259.697,317.412,259.697
					z M317.412,145.04c-16.863,0-31.109,23.963-31.109,52.326c0,28.366,14.246,52.33,31.109,52.33
					c16.864,0,31.111-23.964,31.111-52.33C348.523,169.003,334.276,145.04,317.412,145.04z"/>
				<path fill-rule="evenodd" clip-rule="evenodd" d="M48.793,196.212c-11.851,0-21.492-10.86-21.492-24.209c0-13.349,9.642-24.208,21.492-24.208
					c11.852,0,21.494,10.859,21.494,24.208C70.287,185.352,60.645,196.212,48.793,196.212z M48.793,157.795
					c-6.337,0-11.492,6.374-11.492,14.208c0,7.835,5.155,14.209,11.492,14.209c6.338,0,11.494-6.374,11.494-14.209
					C60.287,164.169,55.131,157.795,48.793,157.795z"/>
				<path fill-rule="evenodd" clip-rule="evenodd" d="M65.286,319.811c-18.015,0-32.67-19.472-32.67-43.406c0-23.937,14.655-43.41,32.67-43.41
					c18.016,0,32.672,19.474,32.672,43.41C97.958,300.339,83.302,319.811,65.286,319.811z M65.286,242.994
					c-12.5,0-22.67,14.987-22.67,33.41c0,18.42,10.17,33.406,22.67,33.406c12.501,0,22.672-14.986,22.672-33.406
					C87.958,257.982,77.787,242.994,65.286,242.994z"/>
				<path fill-rule="evenodd" clip-rule="evenodd" d="M17.403,359.116c-7.797,0-12.586-0.36-12.786-0.376C2.012,358.54,0,356.368,0,353.755V148.97
					c0-1.312,0.516-2.571,1.436-3.506c17.214-17.502,34.76-26.376,52.147-26.376c19.896,0,34.217,11.88,40.434,22.053
					c18.78,30.73,3.993,54.431-6.736,66.001c10.411,1.655,19.693,4.417,27.751,8.256c1.65-24.451,9.404-47.173,22.19-64.686
					c14.574-19.964,34.024-30.958,54.769-30.958c21.321,0,41.14,11.573,55.627,32.13c12.679-36.334,39.749-60.032,69.795-60.032
					c22.586,0,41.522,9.825,54.084,27.531l0.471-35.948c0.358-11.792,4-18.546,8.668-22.206c7.344-5.758,20.585-4.762,22.846-4.669
					c7.35,0.302,18.316,1.709,23.862,8.133c4.504,5.217,6.293,12.598,5.377,22.639l-12.958,204.073
					c-1.865,16.08-12.265,23.926-26.483,23.926c-13.901,0-24.633-12.515-24.001-26.39l0.175-13.417
					c-14.088,17.567-32.427,27.359-52.04,27.359c-21.32,0-41.139-11.573-55.625-32.13c-12.679,36.334-39.75,60.032-69.797,60.032
					c-18.303,0-35.615-8.575-49.452-24.323C117.124,353.809,47.322,359.116,17.403,359.116z M10,348.995
					c1.948,0.066,4.453,0.121,7.403,0.121c29.399,0,99.885-5.252,119.363-53.901c0.675-1.685,2.211-2.873,4.012-3.102
					c1.805-0.235,3.585,0.537,4.66,2.001c12.629,17.198,29.161,26.67,46.552,26.67c28.267,0,53.72-25.418,63.336-63.249
					c0.505-1.986,2.17-3.463,4.201-3.727c2.028-0.269,4.019,0.737,5.015,2.529c12.909,23.224,32.18,36.544,52.87,36.544
					c20.703,0,39.98-13.333,52.889-36.579c1.112-2.002,3.438-2.989,5.656-2.405c2.214,0.589,3.744,2.607,3.715,4.898
					c0,0-0.402,30.479-0.402,30.54c0.065,9.334,6.092,15.591,14.503,16.006c8.446,0.422,15.391-6.718,16.005-14.5
					c0,0,12.977-204.31,12.979-204.357c0.284-7.887-0.335-12.225-2.945-15.215c-3.629-4.155-25.366-6.35-31.553-3.25
					c-3.671,1.839-6.011,6.328-6.293,15.633l-0.725,55.343c-0.032,2.396-1.76,4.434-4.119,4.856
					c-2.352,0.42-4.686-0.888-5.547-3.126c-9.51-24.705-29.251-38.874-54.162-38.874c-28.266,0-53.718,25.418-63.334,63.249
					c-0.505,1.986-2.17,3.463-4.201,3.727c-2.039,0.268-4.02-0.738-5.015-2.529c-12.909-23.224-32.18-36.544-52.872-36.544
					c-36.504,0-66.687,42.142-67.281,93.94c-0.021,1.806-1.014,3.459-2.597,4.327c-1.583,0.867-3.511,0.814-5.045-0.14
					c-10.693-6.653-24.699-10.717-41.628-12.077c-2.107-0.17-3.881-1.646-4.429-3.689c-0.548-2.042,0.248-4.208,1.987-5.41
					c1.404-0.98,34.359-24.556,12.485-60.35c-4.868-7.966-16.144-17.268-31.9-17.268c-14.149,0-28.805,7.384-43.583,21.951V348.995z
					"/>
				<path fill-rule="evenodd" clip-rule="evenodd" d="M390.367,376.516c-15.18,0-27.529-12.35-27.529-27.529c0-15.18,12.35-27.529,27.529-27.529
					c15.18,0,27.529,12.35,27.529,27.529C417.897,364.166,405.547,376.516,390.367,376.516z M390.367,331.457
					c-9.666,0-17.529,7.863-17.529,17.529c0,9.666,7.863,17.529,17.529,17.529c9.666,0,17.529-7.863,17.529-17.529
					C407.897,339.32,400.033,331.457,390.367,331.457z"/>
</svg>